<svg width="126" height="32" viewBox="0 0 126 32" fill="none" xmlns="http://www.w3.org/2000/svg">
<g filter="url(#filter0_d_1_75)">
<path d="M16.0489 3.92705C16.3483 3.00574 17.6517 3.00574 17.9511 3.92705L20.1432 10.6738C20.2771 11.0858 20.661 11.3647 21.0943 11.3647H28.1882C29.1569 11.3647 29.5597 12.6044 28.7759 13.1738L23.0369 17.3435C22.6864 17.5981 22.5397 18.0495 22.6736 18.4615L24.8657 25.2082C25.1651 26.1295 24.1106 26.8956 23.3269 26.3262L17.5878 22.1565C17.2373 21.9019 16.7627 21.9019 16.4122 22.1565L10.6731 26.3262C9.88941 26.8956 8.83493 26.1295 9.13428 25.2082L11.3264 18.4615C11.4603 18.0495 11.3136 17.5981 10.9631 17.3435L5.22405 13.1738C4.44034 12.6044 4.84311 11.3647 5.81184 11.3647H12.9057C13.339 11.3647 13.7229 11.0858 13.8568 10.6738L16.0489 3.92705Z" fill="#F9D02E"/>
</g>
<g filter="url(#filter1_d_1_75)">
<path d="M39.0489 3.92705C39.3483 3.00574 40.6517 3.00574 40.9511 3.92705L43.1432 10.6738C43.2771 11.0858 43.661 11.3647 44.0943 11.3647H51.1882C52.1569 11.3647 52.5597 12.6044 51.7759 13.1738L46.0369 17.3435C45.6864 17.5981 45.5397 18.0495 45.6736 18.4615L47.8657 25.2082C48.1651 26.1295 47.1106 26.8956 46.3269 26.3262L40.5878 22.1565C40.2373 21.9019 39.7627 21.9019 39.4122 22.1565L33.6731 26.3262C32.8894 26.8956 31.8349 26.1295 32.1343 25.2082L34.3264 18.4615C34.4603 18.0495 34.3136 17.5981 33.9631 17.3435L28.2241 13.1738C27.4403 12.6044 27.8431 11.3647 28.8118 11.3647H35.9057C36.339 11.3647 36.7229 11.0858 36.8568 10.6738L39.0489 3.92705Z" fill="#F9D02E"/>
</g>
<g filter="url(#filter2_d_1_75)">
<path d="M62.0489 3.92705C62.3483 3.00574 63.6517 3.00574 63.9511 3.92705L66.1432 10.6738C66.2771 11.0858 66.661 11.3647 67.0943 11.3647H74.1882C75.1569 11.3647 75.5597 12.6044 74.7759 13.1738L69.0369 17.3435C68.6864 17.5981 68.5397 18.0495 68.6736 18.4615L70.8657 25.2082C71.1651 26.1295 70.1106 26.8956 69.3269 26.3262L63.5878 22.1565C63.2373 21.9019 62.7627 21.9019 62.4122 22.1565L56.6731 26.3262C55.8894 26.8956 54.8349 26.1295 55.1343 25.2082L57.3264 18.4615C57.4603 18.0495 57.3136 17.5981 56.9631 17.3435L51.2241 13.1738C50.4403 12.6044 50.8431 11.3647 51.8118 11.3647H58.9057C59.339 11.3647 59.7229 11.0858 59.8568 10.6738L62.0489 3.92705Z" fill="#F9D02E"/>
</g>
<g filter="url(#filter3_d_1_75)">
<path d="M85.0489 3.92705C85.3483 3.00574 86.6517 3.00574 86.9511 3.92705L89.1432 10.6738C89.2771 11.0858 89.661 11.3647 90.0943 11.3647H97.1882C98.1569 11.3647 98.5597 12.6044 97.7759 13.1738L92.0369 17.3435C91.6864 17.5981 91.5397 18.0495 91.6736 18.4615L93.8657 25.2082C94.1651 26.1295 93.1106 26.8956 92.3269 26.3262L86.5878 22.1565C86.2373 21.9019 85.7627 21.9019 85.4122 22.1565L79.6731 26.3262C78.8894 26.8956 77.8349 26.1295 78.1343 25.2082L80.3264 18.4615C80.4603 18.0495 80.3136 17.5981 79.9631 17.3435L74.2241 13.1738C73.4403 12.6044 73.8431 11.3647 74.8118 11.3647H81.9057C82.339 11.3647 82.7229 11.0858 82.8568 10.6738L85.0489 3.92705Z" fill="#F9D02E"/>
</g>
<g filter="url(#filter4_d_1_75)">
<path d="M108.049 3.92705C108.348 3.00574 109.652 3.00574 109.951 3.92705L112.143 10.6738C112.277 11.0858 112.661 11.3647 113.094 11.3647H120.188C121.157 11.3647 121.56 12.6044 120.776 13.1738L115.037 17.3435C114.686 17.5981 114.54 18.0495 114.674 18.4615L116.866 25.2082C117.165 26.1295 116.111 26.8956 115.327 26.3262L109.588 22.1565C109.237 21.9019 108.763 21.9019 108.412 22.1565L102.673 26.3262C101.889 26.8956 100.835 26.1295 101.134 25.2082L103.326 18.4615C103.46 18.0495 103.314 17.5981 102.963 17.3435L97.2241 13.1738C96.4403 12.6044 96.8431 11.3647 97.8118 11.3647H104.906C105.339 11.3647 105.723 11.0858 105.857 10.6738L108.049 3.92705Z" fill="#F9D02E"/>
</g>
<defs>
<filter id="filter0_d_1_75" x="0.809937" y="0.236084" width="32.3801" height="31.2856" filterUnits="userSpaceOnUse" color-interpolation-filters="sRGB">
<feFlood flood-opacity="0" result="BackgroundImageFix"/>
<feColorMatrix in="SourceAlpha" type="matrix" values="0 0 0 0 0 0 0 0 0 0 0 0 0 0 0 0 0 0 127 0" result="hardAlpha"/>
<feOffset dy="1"/>
<feGaussianBlur stdDeviation="2"/>
<feComposite in2="hardAlpha" operator="out"/>
<feColorMatrix type="matrix" values="0 0 0 0 0 0 0 0 0 0 0 0 0 0 0 0 0 0 0.5 0"/>
<feBlend mode="normal" in2="BackgroundImageFix" result="effect1_dropShadow_1_75"/>
<feBlend mode="normal" in="SourceGraphic" in2="effect1_dropShadow_1_75" result="shape"/>
</filter>
<filter id="filter1_d_1_75" x="23.8099" y="0.236084" width="32.3801" height="31.2856" filterUnits="userSpaceOnUse" color-interpolation-filters="sRGB">
<feFlood flood-opacity="0" result="BackgroundImageFix"/>
<feColorMatrix in="SourceAlpha" type="matrix" values="0 0 0 0 0 0 0 0 0 0 0 0 0 0 0 0 0 0 127 0" result="hardAlpha"/>
<feOffset dy="1"/>
<feGaussianBlur stdDeviation="2"/>
<feComposite in2="hardAlpha" operator="out"/>
<feColorMatrix type="matrix" values="0 0 0 0 0 0 0 0 0 0 0 0 0 0 0 0 0 0 0.5 0"/>
<feBlend mode="normal" in2="BackgroundImageFix" result="effect1_dropShadow_1_75"/>
<feBlend mode="normal" in="SourceGraphic" in2="effect1_dropShadow_1_75" result="shape"/>
</filter>
<filter id="filter2_d_1_75" x="46.8099" y="0.236084" width="32.3801" height="31.2856" filterUnits="userSpaceOnUse" color-interpolation-filters="sRGB">
<feFlood flood-opacity="0" result="BackgroundImageFix"/>
<feColorMatrix in="SourceAlpha" type="matrix" values="0 0 0 0 0 0 0 0 0 0 0 0 0 0 0 0 0 0 127 0" result="hardAlpha"/>
<feOffset dy="1"/>
<feGaussianBlur stdDeviation="2"/>
<feComposite in2="hardAlpha" operator="out"/>
<feColorMatrix type="matrix" values="0 0 0 0 0 0 0 0 0 0 0 0 0 0 0 0 0 0 0.5 0"/>
<feBlend mode="normal" in2="BackgroundImageFix" result="effect1_dropShadow_1_75"/>
<feBlend mode="normal" in="SourceGraphic" in2="effect1_dropShadow_1_75" result="shape"/>
</filter>
<filter id="filter3_d_1_75" x="69.8099" y="0.236084" width="32.3801" height="31.2856" filterUnits="userSpaceOnUse" color-interpolation-filters="sRGB">
<feFlood flood-opacity="0" result="BackgroundImageFix"/>
<feColorMatrix in="SourceAlpha" type="matrix" values="0 0 0 0 0 0 0 0 0 0 0 0 0 0 0 0 0 0 127 0" result="hardAlpha"/>
<feOffset dy="1"/>
<feGaussianBlur stdDeviation="2"/>
<feComposite in2="hardAlpha" operator="out"/>
<feColorMatrix type="matrix" values="0 0 0 0 0 0 0 0 0 0 0 0 0 0 0 0 0 0 0.5 0"/>
<feBlend mode="normal" in2="BackgroundImageFix" result="effect1_dropShadow_1_75"/>
<feBlend mode="normal" in="SourceGraphic" in2="effect1_dropShadow_1_75" result="shape"/>
</filter>
<filter id="filter4_d_1_75" x="92.8099" y="0.236084" width="32.3801" height="31.2856" filterUnits="userSpaceOnUse" color-interpolation-filters="sRGB">
<feFlood flood-opacity="0" result="BackgroundImageFix"/>
<feColorMatrix in="SourceAlpha" type="matrix" values="0 0 0 0 0 0 0 0 0 0 0 0 0 0 0 0 0 0 127 0" result="hardAlpha"/>
<feOffset dy="1"/>
<feGaussianBlur stdDeviation="2"/>
<feComposite in2="hardAlpha" operator="out"/>
<feColorMatrix type="matrix" values="0 0 0 0 0 0 0 0 0 0 0 0 0 0 0 0 0 0 0.5 0"/>
<feBlend mode="normal" in2="BackgroundImageFix" result="effect1_dropShadow_1_75"/>
<feBlend mode="normal" in="SourceGraphic" in2="effect1_dropShadow_1_75" result="shape"/>
</filter>
</defs>
</svg>
